<?xml version="1.0" standalone="no"?>
<!DOCTYPE svg PUBLIC "-//W3C//DTD SVG 20010904//EN"
 "http://www.w3.org/TR/2001/REC-SVG-20010904/DTD/svg10.dtd">
<svg version="1.0" xmlns="http://www.w3.org/2000/svg"
 width="500.000000pt" height="500.000000pt" viewBox="0 0 500.000000 500.000000"
 preserveAspectRatio="xMidYMid meet">

<g transform="translate(0.000000,500.000000) scale(0.100000,-0.100000)"
fill="#000000" stroke="none">
<path d="M3087 3619 c-46 -11 -94 -35 -220 -111 l-98 -59 -87 29 c-81 27 -87
31 -84 54 2 14 -4 31 -13 38 -13 11 -22 10 -55 -9 l-39 -22 -74 22 c-67 20
-79 21 -121 9 -80 -22 -76 -33 26 -75 51 -21 114 -50 140 -65 56 -31 121 -88
116 -101 -4 -12 -201 -159 -213 -159 -5 0 -44 11 -85 24 -56 18 -80 22 -94 14
-19 -11 -19 -11 0 -25 10 -8 40 -26 66 -41 27 -15 48 -31 48 -35 0 -5 -11 -23
-25 -41 -14 -18 -25 -36 -25 -41 0 -7 56 0 84 11 10 4 16 -17 22 -78 l9 -83
22 22 c16 16 23 39 28 95 l7 74 123 61 122 61 18 -36 c15 -30 20 -70 24 -207
l6 -170 46 43 c45 41 47 45 54 116 6 73 8 75 46 100 21 15 39 32 39 40 0 20
-27 39 -46 32 -15 -6 -16 1 -10 71 4 43 9 88 12 100 4 14 54 53 142 112 105
69 143 101 163 133 37 60 40 75 23 93 -17 17 -40 18 -97 4z"/>
<path d="M980 1509 c0 -177 -6 -209 -40 -209 -13 0 -20 -7 -20 -20 0 -23 2
-23 52 -10 51 15 58 42 58 241 l0 169 -25 0 -25 0 0 -171z"/>
<path d="M2060 1475 l0 -205 25 0 24 0 3 128 3 127 30 0 30 0 3 -127 c2 -120
4 -128 23 -128 19 0 19 6 17 141 -3 120 -6 143 -20 152 -12 8 -24 7 -45 -3
-15 -8 -31 -16 -35 -18 -5 -2 -8 28 -8 67 0 69 -1 71 -25 71 l-25 0 0 -205z"/>
<path d="M2630 1475 l0 -205 25 0 25 0 0 100 0 100 60 0 60 0 0 -100 0 -100
25 0 25 0 0 205 0 205 -25 0 c-25 0 -25 -1 -25 -90 l0 -90 -60 0 -60 0 0 90
c0 89 0 90 -25 90 l-25 0 0 -205z"/>
<path d="M3140 1475 l0 -205 25 0 25 0 0 205 0 205 -25 0 -25 0 0 -205z"/>
<path d="M3490 1615 c0 -36 -2 -65 -5 -65 -3 0 -14 5 -24 12 -26 16 -68 -3
-81 -38 -6 -14 -10 -61 -10 -104 0 -43 4 -90 10 -104 13 -36 52 -53 85 -38 15
7 25 8 25 2 0 -6 11 -10 25 -10 l25 0 0 205 0 205 -25 0 c-24 0 -25 -2 -25
-65z m-2 -196 c2 -97 1 -107 -16 -111 -43 -12 -52 7 -52 111 0 54 3 101 7 105
4 4 19 6 33 4 25 -3 25 -4 28 -109z"/>
<path d="M1100 1645 c0 -20 5 -25 25 -25 20 0 25 5 25 25 0 20 -5 25 -25 25
-20 0 -25 -5 -25 -25z"/>
<path d="M3260 1645 c0 -20 5 -25 25 -25 20 0 25 5 25 25 0 20 -5 25 -25 25
-20 0 -25 -5 -25 -25z"/>
<path d="M1245 1547 c-37 -31 -45 -94 -17 -141 12 -20 17 -38 12 -41 -23 -14
-30 -44 -15 -59 14 -14 14 -17 -5 -36 -47 -47 -15 -84 72 -85 51 0 63 3 79 24
41 50 10 111 -58 111 -46 0 -68 13 -60 34 4 10 18 16 41 16 58 0 84 44 72 119
-5 35 -4 39 19 45 17 4 22 11 18 22 -5 13 -7 13 -23 -1 -21 -19 -28 -19 -46 0
-22 22 -59 18 -89 -8z m74 -21 c7 -8 11 -37 9 -68 -3 -48 -5 -53 -27 -56 -31
-5 -51 21 -51 66 0 62 39 95 69 58z m8 -242 c27 -7 37 -32 22 -51 -18 -21
-103 -14 -107 10 -7 38 30 56 85 41z"/>
<path d="M1682 1560 c-20 -8 -42 -45 -42 -71 0 -5 11 -9 25 -9 17 0 25 5 25
18 0 18 18 42 31 42 17 0 39 -34 39 -60 0 -24 -6 -30 -35 -40 -72 -24 -108
-107 -65 -150 25 -25 52 -26 73 -2 23 25 22 28 -10 27 -26 0 -28 3 -28 39 0
34 5 43 33 59 l32 19 -1 -70 c-2 -76 3 -92 29 -92 15 0 17 12 14 118 -3 146
-6 156 -37 170 -30 14 -51 14 -83 2z"/>
<path d="M1880 1550 c-37 -37 -27 -77 35 -137 30 -30 55 -62 55 -72 0 -46 -65
-51 -76 -6 -4 17 -11 21 -25 18 -14 -4 -18 -11 -13 -27 16 -56 87 -74 129 -31
39 38 32 69 -30 134 -57 59 -65 80 -41 100 18 15 44 4 51 -20 7 -21 26 -21 33
-1 6 18 -45 62 -73 62 -14 0 -34 -9 -45 -20z"/>
<path d="M2316 1549 c-32 -25 -36 -69 -6 -69 13 0 20 7 20 20 0 10 9 24 21 30
28 16 49 -3 49 -44 0 -28 -6 -35 -46 -54 -71 -35 -91 -109 -40 -151 21 -18 63
-6 71 19 8 24 25 17 25 -11 0 -13 7 -19 21 -19 20 0 20 4 17 131 -3 123 -4
132 -27 150 -30 25 -72 24 -105 -2z m73 -225 c-15 -19 -45 -18 -53 2 -12 32
-5 53 27 80 l32 27 3 -47 c2 -27 -2 -54 -9 -62z"/>
<path d="M2953 1558 c-30 -14 -43 -57 -43 -138 0 -110 23 -150 85 -150 62 0
85 40 85 150 0 83 -14 124 -46 139 -30 13 -52 13 -81 -1z m65 -30 c19 -19 16
-202 -4 -219 -11 -9 -20 -10 -32 -2 -14 8 -18 30 -20 108 -3 96 5 125 32 125
7 0 17 -5 24 -12z"/>
<path d="M3625 1545 c-30 -29 -33 -65 -6 -65 12 0 21 9 25 24 13 53 66 42 66
-14 0 -32 -4 -39 -30 -50 -74 -31 -106 -113 -60 -155 24 -21 65 -14 80 15 10
19 9 20 -13 15 -55 -14 -61 57 -7 95 l30 21 0 -43 c0 -82 11 -118 34 -118 21
0 21 3 16 131 -5 122 -7 132 -29 150 -32 26 -77 24 -106 -6z"/>
<path d="M4046 1549 c-44 -35 -36 -73 29 -134 40 -37 55 -58 55 -77 0 -48 -60
-47 -75 2 -4 12 -12 16 -25 13 -27 -7 -25 -19 9 -54 35 -34 68 -37 105 -8 43
34 36 70 -29 138 -57 60 -65 80 -40 101 19 16 45 6 52 -20 7 -26 33 -26 33 -1
0 22 -44 61 -70 61 -10 0 -29 -9 -44 -21z"/>
<path d="M1100 1415 l0 -145 25 0 25 0 0 145 0 145 -25 0 -25 0 0 -145z"/>
<path d="M1456 1423 c41 -170 41 -181 9 -189 -26 -7 -35 -34 -11 -34 27 0 63
18 70 35 3 9 19 76 36 148 16 73 32 142 35 155 4 18 1 22 -19 22 -20 0 -24 -6
-30 -42 -20 -126 -29 -169 -36 -161 -4 4 -13 42 -19 83 -20 117 -21 120 -46
120 l-22 0 33 -137z"/>
<path d="M3260 1415 l0 -145 25 0 25 0 0 145 0 145 -25 0 -25 0 0 -145z"/>
<path d="M3810 1551 c0 -6 14 -67 30 -136 37 -157 38 -173 5 -181 -32 -8 -33
-34 -1 -34 50 0 64 26 101 192 19 86 35 160 35 163 0 4 -10 5 -22 3 -19 -3
-24 -14 -39 -101 -24 -136 -25 -136 -49 -2 -19 103 -19 105 -40 105 -11 0 -20
-4 -20 -9z"/>
<path d="M1681 1130 c14 -31 19 -36 19 -24 0 6 -7 19 -16 30 -14 18 -14 18 -3
-6z"/>
<path d="M1867 1140 c6 -8 13 -28 16 -45 l4 -30 2 31 c0 20 -6 37 -16 45 -16
12 -16 12 -6 -1z"/>
<path d="M2022 1125 c0 -16 2 -22 5 -12 2 9 2 23 0 30 -3 6 -5 -1 -5 -18z"/>
<path d="M2083 1115 c0 -22 2 -30 4 -17 2 12 2 30 0 40 -3 9 -5 -1 -4 -23z"/>
<path d="M2126 1143 c6 -4 14 -15 17 -23 5 -11 6 -9 4 4 -1 11 -9 21 -17 23
-10 3 -11 2 -4 -4z"/>
<path d="M2280 1120 c0 -16 2 -30 4 -30 2 0 6 14 8 30 3 17 1 30 -4 30 -4 0
-8 -13 -8 -30z"/>
<path d="M2437 1140 c6 -8 13 -28 16 -45 l4 -30 2 31 c0 20 -6 37 -16 45 -16
12 -16 12 -6 -1z"/>
<path d="M2592 1125 c0 -16 2 -22 5 -12 2 9 2 23 0 30 -3 6 -5 -1 -5 -18z"/>
<path d="M2645 1095 c-3 -31 -4 -59 -2 -62 3 -2 9 21 12 52 4 31 5 58 2 61 -2
3 -8 -20 -12 -51z"/>
<path d="M2698 1143 c18 -7 15 -30 -6 -45 -18 -13 -18 -14 0 -43 19 -32 25
-27 7 6 -8 16 -7 25 6 39 19 21 14 51 -7 49 -10 0 -10 -2 0 -6z"/>
<path d="M2875 1122 c0 -36 -41 -45 -48 -10 -2 13 -5 6 -5 -17 0 -22 2 -34 5
-27 2 6 12 12 22 12 31 0 57 49 33 64 -4 2 -8 -8 -7 -22z"/>
<path d="M2976 1135 c4 -8 8 -15 10 -15 2 0 4 7 4 15 0 8 -4 15 -10 15 -5 0
-7 -7 -4 -15z"/>
<path d="M3090 1120 c0 -16 2 -30 4 -30 2 0 6 14 8 30 3 17 1 30 -4 30 -4 0
-8 -13 -8 -30z"/>
<path d="M3180 1141 c0 -5 7 -15 17 -22 15 -13 15 -12 4 9 -12 23 -21 28 -21
13z"/>
<path d="M3321 1134 c0 -11 3 -14 6 -6 3 7 2 16 -1 19 -3 4 -6 -2 -5 -13z"/>
<path d="M3425 1095 c-3 -31 -4 -59 -2 -62 3 -2 9 21 12 52 4 31 5 58 2 61 -2
3 -8 -20 -12 -51z"/>
<path d="M3478 1143 c18 -7 15 -30 -6 -45 -18 -13 -18 -14 0 -43 19 -32 25
-27 7 6 -8 16 -7 25 6 39 19 21 14 51 -7 49 -10 0 -10 -2 0 -6z"/>
<path d="M1796 1125 c-9 -26 -7 -32 5 -12 6 10 9 21 6 23 -2 3 -7 -2 -11 -11z"/>
<path d="M1942 1094 c-2 -50 6 -64 38 -64 15 0 40 31 40 48 0 12 -4 9 -13 -8
-7 -14 -21 -25 -32 -25 -16 0 -21 9 -26 50 l-6 50 -1 -51z"/>
<path d="M2366 1125 c-9 -26 -7 -32 5 -12 6 10 9 21 6 23 -2 3 -7 -2 -11 -11z"/>
<path d="M2512 1094 c-2 -50 6 -64 38 -64 15 0 40 31 40 48 0 12 -4 9 -13 -8
-7 -14 -21 -25 -32 -25 -16 0 -21 9 -26 50 l-6 50 -1 -51z"/>
<path d="M1712 1098 c-7 -7 -11 -23 -11 -37 l2 -26 4 25 c3 14 10 31 15 38 13
15 6 16 -10 0z"/>
<path d="M2992 1095 c0 -11 4 -31 8 -45 6 -20 8 -21 8 -5 0 11 -4 31 -8 45 -6
20 -8 21 -8 5z"/>
<path d="M3172 1085 c0 -16 2 -22 5 -12 2 9 2 23 0 30 -3 6 -5 -1 -5 -18z"/>
<path d="M3251 1086 c-1 -25 -3 -27 -18 -15 -15 13 -15 12 -3 -10 11 -22 13
-22 22 -7 5 9 7 27 5 39 -3 18 -5 16 -6 -7z"/>
<path d="M3310 1068 c0 -37 1 -38 33 -37 30 2 30 2 5 6 -22 3 -28 10 -28 28 0
18 6 24 28 27 26 3 26 4 -5 9 -32 5 -33 5 -33 -33z"/>
<path d="M2115 1090 c-6 -10 19 -60 30 -60 3 0 -2 11 -11 25 -8 13 -13 29 -9
35 3 5 4 10 1 10 -3 0 -8 -5 -11 -10z"/>
<path d="M2936 1073 c-6 -14 -5 -15 5 -6 7 7 10 15 7 18 -3 3 -9 -2 -12 -12z"/>
<path d="M1790 1066 c0 -8 4 -17 9 -20 5 -4 7 3 4 14 -6 23 -13 26 -13 6z"/>
<path d="M2360 1066 c0 -8 4 -17 9 -20 5 -4 7 3 4 14 -6 23 -13 26 -13 6z"/>
<path d="M2072 1050 c0 -14 2 -19 5 -12 2 6 2 18 0 25 -3 6 -5 1 -5 -13z"/>
<path d="M2272 1050 c0 -14 2 -19 5 -12 2 6 2 18 0 25 -3 6 -5 1 -5 -13z"/>
<path d="M3082 1050 c0 -14 2 -19 5 -12 2 6 2 18 0 25 -3 6 -5 1 -5 -13z"/>
<path d="M1828 1033 c7 -3 16 -2 19 1 4 3 -2 6 -13 5 -11 0 -14 -3 -6 -6z"/>
<path d="M2398 1033 c7 -3 16 -2 19 1 4 3 -2 6 -13 5 -11 0 -14 -3 -6 -6z"/>
</g>
</svg>
